#!OML:ASF F:\VICON\USERDATA\INSTALL\rory3\rory3.ASF
:FULLY-SPECIFIED
:DEGREES
444
root -3.78519 15.2898 22.7325 568.716 -12.0962 185.425
lowerback 0.569747 3.6501 -6.57986
upperback -9.86451 2.65977 -7.3291
thorax -10.9546 0.946903 -4.44825
lowerneck -20.0084 12.7042 3.3765
upperneck 11.3363 17.7125 -9.07758
head 7.86791 7.68252 -1.18472
rclavicle -1.59028e-014 -8.5875e-014
rhumerus 128.782 -30.0797 239.55
rradius 10.7791
rwrist 74.898
rhand -12.0182 4.92553
rfingers 7.12502
rthumb 14.0395 -24.5803
lclavicle -1.59028e-014 -8.5875e-014
lhumerus -1.49644 50.9211 -0.487089
lradius 21.3792
lwrist -33.0231
lhand -4.58693 30.0681
lfingers 7.12502
lthumb 21.1903 58.9299
rfemur 3.41778 11.7075 33.1431
rtibia 3.18055e-015
rfoot -43.6436 -48.9152
rtoes -1.05857
lfemur -89.158 25.3989 -46.0436
ltibia 60.8009
lfoot -29.1162 27.5851
ltoes 19.3183
445
root -3.77011 15.2852 22.7436 568.714 -11.9397 185.316
lowerback 0.678272 3.74735 -6.7494
upperback -9.88814 2.74671 -7.41333
thorax -11.0575 0.994058 -4.46715
lowerneck -20.2993 12.723 3.55187
upperneck 12.0338 17.7438 -8.95187
head 8.15368 7.67306 -1.12838
rclavicle -6.59965e-014 9.54166e-015
rhumerus 127.999 -30.7247 240.542
rradius 10.9064
rwrist 73.1184
rhand -11.5584 4.71995
rfingers 7.12502
rthumb 14.4825 -24.7546
lclavicle -6.59965e-014 9.54166e-015
lhumerus -1.35303 50.0505 -0.534036
lradius 21.5077
lwrist -31.9672
lhand -4.42381 29.9258
lfingers 7.12502
lthumb 21.3469 58.7699
rfemur 3.43877 11.7901 32.9987
rtibia -1.27222e-014
rfoot -43.5349 -48.8126
rtoes -1.27344
lfemur -89.1885 25.4457 -46.152
ltibia 60.7462
lfoot -28.8672 27.7384
ltoes 19.1061
446
root -3.75243 15.2831 22.7582 568.635 -11.809 184.993
lowerback 0.916061 3.8663 -7.16309
upperback -9.8643 2.83607 -7.50767
thorax -11.2049 1.06454 -4.37123
lowerneck -19.9856 12.6642 3.82886
upperneck 12.1164 17.6495 -9.20875
head 8.17643 7.6217 -1.27453
rclavicle -6.44062e-014 2.54444e-014
rhumerus 127.287 -31.406 241.534
rradius 11.1195
rwrist 71.553
rhand -11.1345 4.83841
rfingers 7.12502
rthumb 14.8909 -24.6064
lclavicle -6.44062e-014 2.54444e-014
lhumerus -1.11885 48.6898 -0.360663
lradius 21.7598
lwrist -30.5936
lhand -4.13473 30.3457
lfingers 7.12502
lthumb 21.6246 59.1582
rfemur 3.57509 11.7211 32.704
rtibia -9.54166e-015
rfoot -43.5829 -48.6548
rtoes -1.2588
lfemur -89.0236 25.427 -46.3975
ltibia 60.6648
lfoot -28.4503 28.1719
ltoes 17.9592
447
root -3.74005 15.2781 22.7647 568.578 -11.8908 184.857
lowerback 1.01787 3.90015 -7.25729
upperback -9.78881 2.89429 -7.4665
thorax -11.1867 1.11206 -4.2833
lowerneck -19.9652 12.6292 3.89802
upperneck 12.1684 17.6452 -9.53965
head 8.23287 7.58194 -1.38745
rclavicle -2.78299e-014 -8.5875e-014
rhumerus 126.426 -32.0273 242.869
rradius 11.3572
rwrist 69.6698
rhand -10.9079 4.75881
rfingers 7.12502
rthumb 15.1092 -24.6697
lclavicle -2.78299e-014 -8.5875e-014
lhumerus -0.879885 48.3167 -0.0572685
lradius 21.9047
lwrist -30.1013
lhand -3.95295 30.926
lfingers 7.12502
lthumb 21.7991 59.7183
rfemur 3.69552 11.5557 32.6761
rtibia 2.22639e-014
rfoot -43.6086 -48.4355
rtoes -1.1625
lfemur -88.9132 25.3238 -46.3849
ltibia 60.6528
lfoot -28.3419 28.3233
ltoes 17.6288
448
root -3.73283 15.2742 22.7665 568.559 -11.9432 184.694
lowerback 1.17596 3.91641 -7.23603
upperback -9.76032 2.90753 -7.48398
thorax -11.2472 1.11837 -4.32592
lowerneck -20.3542 12.5789 3.86445
upperneck 12.5927 17.6499 -9.68721
head 8.45535 7.5244 -1.39703
rclavicle 5.48646e-014 -4.13472e-014
rhumerus 125.567 -32.526 244.075
rradius 11.5212
rwrist 68.1603
rhand -10.5745 4.45364
rfingers 7.12502
rthumb 15.4304 -24.9504
lclavicle 5.48646e-014 -4.13472e-014
lhumerus -0.737331 48.5624 0.0740058
lradius 21.993
lwrist -30.154
lhand -3.99265 30.9405
lfingers 7.12502
lthumb 21.761 59.7372
rfemur 3.77839 11.4123 32.581
rtibia -4.45278e-014
rfoot -43.5052 -48.3082
rtoes -1.36123
lfemur -88.8778 25.3131 -46.5344
ltibia 60.7035
lfoot -28.4418 28.0606
ltoes 18.2422
449
root -3.73036 15.2715 22.7591 568.581 -12.1159 184.681
lowerback 1.24423 3.88873 -7.0011
upperback -9.78194 2.88912 -7.45409
thorax -11.2951 1.09389 -4.42653
lowerneck -20.7718 12.5575 3.8068
upperneck 12.9243 17.6955 -9.85651
head 8.65534 7.48416 -1.40546
rclavicle 3.97569e-015 -5.725e-014
rhumerus 125.009 -32.6538 244.775
rradius 11.5695
rwrist 67.415
rhand -10.6754 4.27446
rfingers 7.12502
rthumb 15.3332 -25.1371
lclavicle 3.97569e-015 -5.725e-014
lhumerus -0.981123 48.2879 -0.191414
lradius 22.1783
lwrist -29.8027
lhand -3.78917 30.6826
lfingers 7.12502
lthumb 21.9564 59.4565
rfemur 3.78951 11.249 32.6463
rtibia 2.22639e-014
rfoot -43.4959 -48.287
rtoes -1.48367
lfemur -88.9067 25.2404 -46.4456
ltibia 60.8126
lfoot -28.5893 27.7151
ltoes 19.0227
450
root -3.73485 15.2673 22.7483 568.724 -12.2684 184.566
lowerback 1.24729 3.80363 -6.82888
upperback -9.91372 2.75885 -7.42729
thorax -11.4409 1.00909 -4.48723
lowerneck -21.2932 12.6252 3.67614
upperneck 13.4512 17.8714 -9.83276
head 8.92141 7.5065 -1.31167
rclavicle 3.85642e-014 6.99722e-014
rhumerus 124.197 -32.698 245.598
rradius 11.6459
rwrist 66.6937
rhand -10.6997 4.07579
rfingers 7.12502
rthumb 15.3097 -25.3375
lclavicle 3.85642e-014 6.99722e-014
lhumerus -1.55265 47.5249 -0.804136
lradius 22.4258
lwrist -29.3133
lhand -3.583 30.3596
lfingers 7.12502
lthumb 22.1543 59.1102
rfemur 3.7123 11.0757 32.5459
rtibia 6.36111e-015
rfoot -44.052 -47.9642
rtoes -1.06111
lfemur -88.9848 25.1238 -46.6381
ltibia 60.8203
lfoot -28.6678 27.557
ltoes 19.3384
451
root -3.73275 15.2671 22.7547 568.855 -12.3134 184.525
lowerback 1.31387 3.79873 -6.75446
upperback -9.99296 2.74428 -7.38334
thorax -11.5702 0.996298 -4.48994
lowerneck -21.9104 12.6618 3.6902
upperneck 14.0871 17.9946 -9.88762
head 9.26207 7.49145 -1.26335
rclavicle 9.93923e-015 -6.36111e-015
rhumerus 123.813 -32.6758 246.219
rradius 11.5861
rwrist 66.2839
rhand -11.0044 4.06645
rfingers 7.12502
rthumb 15.0162 -25.369
lclavicle 9.93923e-015 -6.36111e-015
lhumerus -1.74672 47.2192 -1.00234
lradius 22.57
lwrist -29.2282
lhand -3.54846 30.4026
lfingers 7.12502
lthumb 22.1875 59.1493
rfemur 3.57082 11.0464 32.5136
rtibia -6.36111e-015
rfoot -44.4776 -47.8506
rtoes -0.844009
lfemur -89.1055 25.0275 -46.7864
ltibia 60.6775
lfoot -28.282 27.9179
ltoes 18.196
452
root -3.71678 15.2812 22.7669 568.94 -12.137 184.225
lowerback 1.51729 3.89819 -7.32381
upperback -9.98416 2.82525 -7.29893
thorax -11.7339 1.09514 -4.11218
lowerneck -22.6264 12.5616 3.51475
upperneck 14.7921 18.0076 -10.0139
head 9.63175 7.39278 -1.2258
rclavicle -6.0033e-014 2.06736e-013
rhumerus 123.34 -32.9293 247.183
rradius 11.8127
rwrist 65.6725
rhand -11.4007 4.1627
rfingers 7.12502
rthumb 14.6345 -25.3009
lclavicle -6.0033e-014 2.06736e-013
lhumerus -1.75666 47.062 -0.761606
lradius 22.7062
lwrist -29.1907
lhand -3.71663 30.4125
lfingers 7.12502
lthumb 22.0261 59.1783
rfemur 3.48509 11.0761 32.2127
rtibia 6.36111e-015
rfoot -44.8112 -47.645
rtoes -0.190534
lfemur -89.0332 25.0343 -47.1677
ltibia 60.4053
lfoot -27.5321 28.4516
ltoes 16.4157
453
root -3.70409 15.2887 22.7711 569.017 -12.1503 184.115
lowerback 1.47535 3.93715 -7.62101
upperback -9.87108 2.91417 -7.16006
thorax -11.604 1.18649 -3.79671
lowerneck -23.4346 12.4815 3.39704
upperneck 15.3288 18.066 -10.3799
head 9.99858 7.28873 -1.26822
rclavicle 5.56597e-014 -6.67916e-014
rhumerus 123.19 -32.9297 247.742
rradius 12.1513
rwrist 65.4785
rhand -11.5133 4.23273
rfingers 7.12502
rthumb 14.5259 -25.2387
lclavicle 5.56597e-014 -6.67916e-014
lhumerus -2.0355 46.5665 -0.746683
lradius 22.9073
lwrist -28.7439
lhand -3.88443 30.4175
lfingers 7.12502
lthumb 21.8649 59.2021
rfemur 3.40475 11.0262 32.156
rtibia -1.27222e-014
rfoot -44.9591 -47.4025
rtoes 0.314449
lfemur -89.0059 25.0317 -47.2906
ltibia 60.1739
lfoot -27.4352 28.3024
ltoes 16.7291
454
root -3.6997 15.2902 22.7744 569.096 -12.3586 184.196
lowerback 1.43424 3.91621 -7.46968
upperback -9.81966 2.94916 -7.03349
thorax -11.5081 1.20971 -3.73728
lowerneck -23.9198 12.4707 3.52472
upperneck 15.5972 18.148 -10.8866
head 10.2582 7.22152 -1.41055
rclavicle 3.4191e-014 8.5875e-014
rhumerus 123.559 -32.8744 248.071
rradius 11.9174
rwrist 65.3887
rhand -11.2138 4.46762
rfingers 7.12502
rthumb 14.8145 -24.9828
lclavicle 3.4191e-014 8.5875e-014
lhumerus -2.48308 46.2698 -1.05501
lradius 23.0399
lwrist -28.5562
lhand -3.97489 30.1121
lfingers 7.12502
lthumb 21.7781 58.9069
rfemur 3.27143 10.9073 32.3226
rtibia 6.36111e-015
rfoot -44.8451 -47.4104
rtoes 0.6679
lfemur -88.9096 24.8035 -47.0077
ltibia 59.9805
lfoot -27.7119 28.1214
ltoes 17.8799
455
root -3.69812 15.2951 22.7748 569.344 -12.6303 184.148
lowerback 1.41906 3.87233 -7.23352
upperback -9.89034 2.89197 -7.06979
thorax -11.5602 1.15513 -3.90316
lowerneck -24.1103 12.5195 4.00907
upperneck 15.5849 18.2078 -11.583
head 10.4221 7.17405 -1.69065
rclavicle 2.78299e-014 6.99722e-014
rhumerus 123.862 -33.3621 248.713
rradius 11.3159
rwrist 64.8863
rhand -11.3217 4.74433
rfingers 7.12502
rthumb 14.7106 -24.7137
lclavicle 2.78299e-014 6.99722e-014
lhumerus -2.81711 45.935 -1.49396
lradius 23.1371
lwrist -28.6299
lhand -3.89739 29.5801
lfingers 7.12502
lthumb 21.8525 58.3662
rfemur 2.96618 10.7069 32.3464
rtibia -6.36111e-015
rfoot -44.4504 -47.7331
rtoes -0.33798
lfemur -88.8118 24.3167 -46.7525
ltibia 59.7842
lfoot -28.11 27.991
ltoes 19.1511
456
root -3.69392 15.306 22.7683 569.508 -12.9764 184.089
lowerback 1.49725 3.81729 -6.94394
upperback -9.95784 2.8085 -7.1428
thorax -11.6616 1.07962 -4.1427
lowerneck -24.4606 12.5549 4.35202
upperneck 15.6388 18.2823 -12.2006
head 10.6186 7.1208 -1.91631
rclavicle 6.67916e-014 -7.95139e-014
rhumerus 123.628 -33.9138 249.389
rradius 11.0895
rwrist 64.2488
rhand -11.5412 4.75382
rfingers 7.12502
rthumb 14.4991 -24.7196
lclavicle 6.67916e-014 -7.95139e-014
lhumerus -3.06025 45.196 -1.87541
lradius 23.3257
lwrist -28.4148
lhand -3.83785 29.4766
lfingers 7.12502
lthumb 21.9097 58.256
rfemur 2.77483 10.4108 32.4222
rtibia 3.81667e-014
rfoot -44.1385 -47.9522
rtoes -1.17218
lfemur -88.6682 23.9501 -46.5979
ltibia 59.5683
lfoot -28.097 28.0191
ltoes 19.3389
457
root -3.68825 15.3254 22.7666 569.617 -13.1603 183.807
lowerback 1.78871 3.84047 -7.01506
upperback -10.0755 2.75172 -7.26238
thorax -11.9841 1.03926 -4.26164
lowerneck -24.7829 12.4824 4.68077
upperneck 15.9087 18.2305 -12.7727
head 10.8738 7.00119 -2.15196
rclavicle -1.82882e-014 4.13472e-014
rhumerus 123.323 -34.1777 249.539
rradius 11.1407
rwrist 64.5047
rhand -11.9021 4.88731
rfingers 7.12502
rthumb 14.1514 -24.6107
lclavicle -1.82882e-014 4.13472e-014
lhumerus -3.09693 44.1539 -1.9784
lradius 23.4701
lwrist -27.8785
lhand -4.23017 29.5986
lfingers 7.12502
lthumb 21.5329 58.4216
rfemur 2.65059 10.1355 32.2313
rtibia -4.45278e-014
rfoot -43.5855 -48.2107
rtoes -1.524
lfemur -88.3296 23.6726 -46.6928
ltibia 59.2621
lfoot -28.2305 27.8703
ltoes 19.6213
